<?xml version="1.0" encoding="UTF-8"?>
<svg xmlns="http://www.w3.org/2000/svg" xmlns:xlink="http://www.w3.org/1999/xlink" width="375pt" height="374.999991pt" viewBox="0 0 375 374.999991" version="1.2">
<defs>
<clipPath id="clip1">
  <path d="M 4.414062 155 L 370 155 L 370 277.039062 L 4.414062 277.039062 Z M 4.414062 155 "/>
</clipPath>
<clipPath id="clip2">
  <path d="M 208 97.789062 L 215 97.789062 L 215 131 L 208 131 Z M 208 97.789062 "/>
</clipPath>
</defs>
<g id="surface1">
<path style=" stroke:none;fill-rule:evenodd;fill:rgb(19.60907%,19.60907%,19.60907%);fill-opacity:1;" d="M 217.859375 157.601562 C 217.5625 157.339844 218.332031 158.007812 217.859375 157.601562 Z M 217.859375 157.601562 "/>
<path style=" stroke:none;fill-rule:evenodd;fill:rgb(19.60907%,19.60907%,19.60907%);fill-opacity:1;" d="M 273.964844 185.34375 C 273.667969 185.089844 274.449219 185.753906 273.964844 185.34375 Z M 273.964844 185.34375 "/>
<path style=" stroke:none;fill-rule:evenodd;fill:rgb(19.60907%,19.60907%,19.60907%);fill-opacity:1;" d="M 75.40625 219.878906 C 76.464844 217.84375 77.207031 222.289062 75.40625 219.878906 Z M 75.40625 219.878906 "/>
<path style=" stroke:none;fill-rule:evenodd;fill:rgb(19.60907%,19.60907%,19.60907%);fill-opacity:1;" d="M 148.796875 242.699219 C 148.492188 242.4375 149.273438 243.097656 148.796875 242.699219 Z M 148.796875 242.699219 "/>
<g clip-path="url(#clip1)" clip-rule="nonzero">
<path style=" stroke:none;fill-rule:evenodd;fill:rgb(19.60907%,19.60907%,19.60907%);fill-opacity:1;" d="M 202.75 216.792969 C 188.871094 219.703125 182.941406 232.703125 170.375 234.675781 C 164.34375 237.929688 158.695312 241.511719 151.675781 243.929688 C 152.113281 241.632812 154.867188 241.320312 155.980469 239.609375 C 152.734375 240.316406 149.804688 241.386719 148.078125 239.609375 C 143.492188 241.226562 140.042969 243.824219 137.285156 247.011719 C 144.621094 257.929688 159.789062 264.226562 162.464844 277.222656 C 156.265625 278.734375 152.503906 275.304688 149.511719 272.285156 C 147.054688 272.035156 147.347656 274.140625 145.910156 274.757812 C 134.179688 273.097656 130.125 264.859375 124.339844 258.109375 C 115.679688 260.710938 106.199219 260.261719 101.3125 255.027344 C 93.886719 260.644531 89.613281 253.339844 84.769531 248.859375 C 81.832031 249.46875 78.851562 252.929688 76.136719 250.089844 C 69.191406 257.09375 59.582031 261.804688 49.511719 266.125 C 47.730469 266.226562 47.292969 265.152344 45.917969 264.890625 C 38.539062 269.054688 32.351562 263.871094 25.777344 268.71875 C 26.03125 269.582031 27.042969 268.773438 27.210938 268.101562 C 25.132812 273.515625 14.570312 278.40625 4.914062 276.121094 C 5.433594 274.863281 7.082031 273.601562 8.511719 274.890625 C 20.199219 256.945312 41.785156 252.507812 56.714844 235.296875 C 64.359375 233.011719 65.804688 225.414062 74.691406 224.199219 C 78.164062 219.011719 84.222656 217.691406 89.082031 214.949219 C 91.058594 217.359375 95.671875 214.761719 95.558594 218.027344 C 98.648438 218.316406 96.476562 216.363281 97.714844 216.183594 C 104.878906 216.335938 108.695312 220.066406 109.949219 223.574219 C 112.0625 221.019531 115.519531 222.476562 118.582031 219.265625 C 123.527344 214.070312 127.28125 205.695312 133.683594 198.910156 C 141.101562 191.054688 146.960938 183.941406 155.269531 179.179688 C 156.164062 177.886719 157.265625 176.785156 158.140625 175.488281 C 160.503906 175.441406 160.898438 173.726562 163.898438 174.25 C 168.867188 170.308594 174.621094 174.304688 179 176.09375 C 187.960938 176.816406 191.925781 172.277344 196.277344 166.230469 C 197.546875 166.789062 198.382812 167.714844 199.871094 168.082031 C 199.011719 166.382812 198.304688 165.507812 199.15625 163.757812 C 202.195312 163.285156 204.726562 162.371094 206.355469 160.683594 C 209.011719 160.761719 208.15625 161.574219 207.785156 163.15625 C 211.328125 162.28125 211.140625 158.21875 214.980469 157.597656 C 214.886719 158.703125 215.855469 158.90625 215.699219 160.070312 C 218.335938 158.847656 221.152344 157.75 222.898438 155.746094 C 224.738281 155.808594 224.054688 158.050781 225.058594 158.835938 C 230.464844 156.585938 235.972656 162.355469 241.597656 163.757812 C 241.25 168.460938 245 167.257812 249.511719 169.933594 C 251.964844 171.394531 253.316406 174.238281 255.265625 175.488281 C 255.894531 175.875 257.453125 175.148438 258.148438 175.488281 C 263.367188 177.988281 265.21875 182.910156 270.378906 182.882812 C 272.207031 187.472656 278.382812 188.34375 279.71875 193.367188 C 286.960938 195.59375 289.128906 202.15625 296.269531 204.464844 C 301.277344 213.730469 313.054688 217.21875 317.859375 226.660156 C 326.324219 234.28125 346.28125 243.949219 350.492188 253.175781 C 358.410156 258.722656 366.351562 264.253906 369.914062 273.515625 C 363.757812 270.167969 356.503906 267.761719 352.648438 262.421875 C 343.355469 260.988281 338.777344 260.785156 331.789062 255.027344 C 329.367188 254.796875 320.25 257.699219 319.289062 258.726562 C 309.320312 255.304688 303.058594 243.238281 292.679688 245.773438 C 291.402344 244.199219 289.964844 242.753906 288.363281 241.460938 C 286.472656 241.289062 285.265625 241.6875 285.480469 243.308594 C 283.371094 243.273438 282.808594 241.90625 281.875 240.847656 C 278.363281 242.558594 273.882812 243.433594 271.089844 245.773438 C 264.910156 243.894531 263.265625 237.625 258.859375 235.910156 C 259.796875 234.460938 258.496094 234.535156 260.300781 233.445312 C 254.230469 233.941406 247.375 228.136719 241.597656 228.515625 C 241.464844 229.042969 241.882812 229.097656 242.316406 229.132812 C 241.136719 229.832031 239.910156 229.226562 237.273438 229.132812 C 229.746094 234.386719 217.585938 223.308594 211.382812 220.496094 C 207.820312 218.859375 204.957031 219.269531 202.789062 216.792969 Z M 148.078125 259.34375 C 148.707031 260.863281 148.726562 262.902344 150.953125 263.046875 C 150.144531 261.695312 150.128906 259.640625 148.078125 259.34375 Z M 222.898438 157.601562 C 219.195312 159.09375 225.371094 159.199219 222.898438 157.601562 Z M 234.40625 165.621094 C 233.445312 165.714844 232.238281 163.109375 231.53125 165.007812 C 231.976562 165.347656 233.699219 167.511719 234.402344 165.621094 Z M 200.589844 166.238281 C 202.78125 167.917969 198.625 164.363281 200.589844 166.238281 Z M 218.578125 169.324219 C 218.785156 168.0625 220.511719 168.105469 220.730469 166.847656 C 219.757812 166.65625 219.363281 165.972656 217.855469 166.238281 C 218.242188 167.136719 217.015625 169.429688 218.574219 169.324219 Z M 196.277344 169.9375 C 197.757812 170.476562 199.503906 168.332031 197.722656 168.089844 C 197.648438 169.054688 195.878906 168.570312 196.28125 169.9375 Z M 224.332031 173.027344 C 225.058594 173.027344 225.183594 173.515625 225.773438 173.628906 C 225.710938 172.671875 225.867188 171.507812 224.332031 171.796875 Z M 194.835938 173.027344 C 195.3125 173.425781 194.539062 172.765625 194.835938 173.027344 Z M 215.699219 177.949219 L 217.140625 177.949219 C 217.941406 177.0625 217.914062 176.445312 216.414062 176.101562 C 216.382812 176.882812 215.492188 176.949219 215.703125 177.945312 Z M 232.238281 177.339844 C 232.710938 177.746094 231.941406 177.078125 232.238281 177.339844 Z M 206.359375 179.804688 C 207.175781 182.246094 207.175781 177.359375 206.359375 179.804688 Z M 191.238281 181.65625 L 192.675781 181.65625 L 192.675781 180.417969 L 191.238281 180.417969 L 191.238281 181.660156 Z M 204.191406 182.890625 C 205.671875 183.429688 207.417969 181.289062 205.621094 181.046875 C 204.863281 183.132812 205.394531 179.328125 203.464844 180.425781 C 203.414062 181.496094 203.628906 182.34375 204.191406 182.894531 Z M 188.363281 186.578125 C 187.6875 184.3125 192.015625 183.195312 189.804688 181.65625 C 188.980469 182.632812 186.042969 184.949219 188.363281 186.578125 Z M 265.332031 182.890625 C 267.128906 185.285156 266.386719 180.839844 265.332031 182.890625 Z M 270.378906 186.578125 C 270.523438 184.613281 269.164062 183.917969 267.507812 183.503906 C 267.550781 185.3125 269.15625 185.792969 270.378906 186.582031 Z M 243.75 189.671875 C 244.234375 190.066406 243.460938 189.414062 243.75 189.671875 Z M 229.371094 190.90625 C 227.1875 192.980469 232.023438 192.773438 229.371094 190.90625 Z M 226.492188 206.320312 C 227.324219 208.75 227.324219 203.890625 226.492188 206.320312 Z M 271.09375 210.640625 C 272.828125 213.808594 272.949219 208.511719 271.09375 210.640625 Z M 200.589844 213.09375 L 202.035156 213.09375 L 202.035156 211.863281 L 200.589844 211.863281 Z M 147.347656 213.09375 C 148.1875 215.539062 148.1875 210.664062 147.347656 213.09375 Z M 273.246094 213.09375 C 273.726562 213.503906 272.949219 212.839844 273.246094 213.09375 Z M 98.441406 224.203125 C 98.910156 224.601562 98.132812 223.941406 98.441406 224.203125 Z M 100.589844 225.4375 C 102.691406 226.347656 102.691406 222.683594 100.589844 223.585938 Z M 315.691406 226.046875 C 316.167969 226.445312 315.394531 225.792969 315.691406 226.046875 Z M 172.542969 228.515625 L 173.96875 228.515625 L 173.96875 227.285156 L 172.542969 227.285156 Z M 240.871094 227.902344 C 241.359375 228.3125 240.574219 227.644531 240.871094 227.902344 Z M 161.023438 230.371094 C 162.933594 229.953125 164.6875 229.40625 166.054688 228.519531 C 165.007812 227.785156 161.453125 228.664062 161.023438 230.371094 Z M 158.871094 230.980469 C 160.652344 233.390625 159.917969 228.945312 158.871094 230.980469 Z M 155.984375 233.449219 C 158.410156 235.316406 158.171875 231.183594 155.984375 233.449219 Z M 157.421875 238.378906 C 157.898438 238.789062 157.125 238.128906 157.421875 238.378906 Z M 100.589844 241.464844 L 100.589844 239.613281 L 98.4375 239.613281 C 98.304688 240.953125 99.03125 241.585938 100.589844 241.464844 Z M 137.28125 243.933594 C 139.085938 243.007812 140.007812 241.332031 140.878906 239.613281 C 139.074219 240.140625 135.378906 242.269531 137.285156 243.933594 Z M 301.3125 240.847656 C 300.183594 240.792969 300.746094 239.273438 299.15625 239.613281 C 298.527344 240.894531 301.019531 242.378906 301.316406 240.847656 Z M 85.488281 243.308594 C 86.335938 243.492188 87.300781 246.578125 88.367188 244.542969 C 87.242188 244.386719 87.871094 243.1875 88.367188 242.691406 C 87.410156 241.898438 85.679688 241.890625 85.488281 243.308594 Z M 79.011719 248.863281 C 81.246094 248.925781 82.453125 248.109375 84.039062 247.628906 C 84.210938 246.464844 83.234375 246.269531 83.332031 245.167969 C 80.199219 244.957031 79.554688 246.867188 79.007812 248.863281 Z M 309.222656 250.097656 C 309.34375 248.554688 308.117188 248.167969 307.054688 247.632812 C 306.933594 249.171875 308.160156 249.558594 309.222656 250.097656 Z M 317.855469 255.035156 C 315.164062 253.230469 315.515625 248.820312 310.664062 248.867188 C 309.289062 251.960938 316.214844 256.328125 317.855469 255.03125 Z M 119.300781 253.183594 C 117.367188 252.78125 116.5625 251.410156 114.984375 250.710938 C 115 252.375 117.753906 254.859375 119.296875 253.1875 Z M 92.671875 252.558594 C 92.144531 254.457031 94.65625 253.757812 94.113281 255.644531 C 95.824219 255.253906 97.464844 254.820312 97.714844 253.179688 C 97.066406 252.09375 96.378906 251.035156 94.113281 251.328125 C 93.972656 252.019531 93.320312 252.289062 92.675781 252.558594 Z M 58.144531 259.347656 L 61.742188 259.347656 C 61.550781 257.515625 63.757812 255.589844 61.019531 255.03125 C 60.824219 257.121094 58.210938 257.144531 58.144531 259.34375 Z M 50.226562 264.277344 C 50.359375 263.292969 52.644531 261.09375 50.945312 260.589844 C 50.789062 262.164062 47.238281 263.539062 50.226562 264.277344 Z M 50.226562 264.277344 "/>
</g>
<path style=" stroke:none;fill-rule:evenodd;fill:rgb(19.60907%,19.60907%,19.60907%);fill-opacity:1;" d="M 192.691406 130.535156 C 192.359375 130.203125 193.203125 131.054688 192.691406 130.535156 Z M 192.691406 130.535156 "/>
<path style=" stroke:none;fill-rule:evenodd;fill:rgb(19.60907%,19.60907%,19.60907%);fill-opacity:1;" d="M 286.019531 136.078125 C 288.9375 138.480469 283.609375 138.75 286.019531 136.078125 Z M 286.019531 136.078125 "/>
<path style=" stroke:none;fill-rule:evenodd;fill:rgb(19.60907%,19.60907%,19.60907%);fill-opacity:1;" d="M 283.636719 139.25 C 283.3125 138.917969 284.164062 139.765625 283.636719 139.25 Z M 283.636719 139.25 "/>
<path style=" stroke:none;fill-rule:evenodd;fill:rgb(19.60907%,19.60907%,19.60907%);fill-opacity:1;" d="M 285.226562 140.042969 C 286.140625 136.90625 286.140625 143.167969 285.226562 140.042969 Z M 285.226562 140.042969 "/>
<path style=" stroke:none;fill-rule:evenodd;fill:rgb(19.60907%,19.60907%,19.60907%);fill-opacity:1;" d="M 284.433594 141.625 C 282.160156 143.308594 283.582031 148.691406 282.066406 151.128906 C 279.253906 150.4375 280.117188 151.035156 277.316406 150.335938 C 277.613281 145.410156 279.066406 139.011719 284.433594 141.625 Z M 284.433594 141.625 "/>
<path style=" stroke:none;fill-rule:evenodd;fill:rgb(19.60907%,19.60907%,19.60907%);fill-opacity:1;" d="M 110.433594 148.753906 C 111.859375 148.652344 112.101562 149.714844 113.597656 149.546875 C 113.847656 150.941406 109.171875 150.960938 110.433594 148.753906 Z M 110.433594 148.753906 "/>
<path style=" stroke:none;fill-rule:evenodd;fill:rgb(19.60907%,19.60907%,19.60907%);fill-opacity:1;" d="M 314.496094 152.714844 C 315.402344 149.578125 315.402344 155.839844 314.496094 152.714844 Z M 314.496094 152.714844 "/>
<path style=" stroke:none;fill-rule:evenodd;fill:rgb(19.60907%,19.60907%,19.60907%);fill-opacity:1;" d="M 111.226562 153.5 C 110.898438 153.171875 111.738281 154.027344 111.226562 153.5 Z M 111.226562 153.5 "/>
<path style=" stroke:none;fill-rule:evenodd;fill:rgb(19.60907%,19.60907%,19.60907%);fill-opacity:1;" d="M 112.808594 152.714844 C 117.734375 157.550781 120.289062 164.757812 126.253906 168.554688 C 125.457031 169.609375 125.507812 171.503906 123.882812 171.722656 C 117.828125 168.015625 115.066406 161.011719 110.429688 155.882812 C 110.199219 153.800781 113.496094 155.261719 112.804688 152.714844 Z M 112.808594 152.714844 "/>
<path style=" stroke:none;fill-rule:evenodd;fill:rgb(19.60907%,19.60907%,19.60907%);fill-opacity:1;" d="M 350.085938 155.089844 C 349.757812 157.085938 347.378906 158.730469 346.125 157.472656 C 346.675781 155.902344 348.234375 155.355469 350.082031 155.089844 Z M 350.085938 155.089844 "/>
<path style=" stroke:none;fill-rule:evenodd;fill:rgb(19.60907%,19.60907%,19.60907%);fill-opacity:1;" d="M 342.964844 162.21875 C 342.632812 161.886719 343.484375 162.734375 342.964844 162.21875 Z M 342.964844 162.21875 "/>
<path style=" stroke:none;fill-rule:evenodd;fill:rgb(19.60907%,19.60907%,19.60907%);fill-opacity:1;" d="M 345.328125 164.59375 C 344.574219 166.6875 341.511719 169.082031 339.003906 166.976562 C 338.582031 162.132812 342.835938 162.96875 345.332031 164.59375 Z M 345.328125 164.59375 "/>
<path style=" stroke:none;fill-rule:evenodd;fill:rgb(19.60907%,19.60907%,19.60907%);fill-opacity:1;" d="M 66.140625 163.804688 C 68.089844 167.976562 72.867188 169.6875 71.679688 174.894531 C 69.363281 174.742188 64.546875 169.859375 67.722656 169.351562 C 67.574219 168.707031 66.925781 168.554688 66.925781 167.761719 C 61.328125 168.65625 67.210938 175.199219 66.925781 175.6875 C 62.210938 177.910156 61.042969 163.582031 66.140625 163.796875 Z M 66.140625 163.804688 "/>
<path style=" stroke:none;fill-rule:evenodd;fill:rgb(19.60907%,19.60907%,19.60907%);fill-opacity:1;" d="M 62.984375 165.386719 C 62.273438 165.875 61.5625 166.34375 61.394531 165.386719 C 61.597656 164.386719 62.96875 164.585938 62.984375 165.386719 Z M 62.984375 165.386719 "/>
<path style=" stroke:none;fill-rule:evenodd;fill:rgb(19.60907%,19.60907%,19.60907%);fill-opacity:1;" d="M 60.605469 169.351562 C 59.921875 166.597656 61.828125 166.628906 62.984375 167.761719 C 62.632812 168.738281 61.964844 169.394531 60.605469 169.351562 Z M 60.605469 169.351562 "/>
<path style=" stroke:none;fill-rule:evenodd;fill:rgb(19.60907%,19.60907%,19.60907%);fill-opacity:1;" d="M 125.457031 174.101562 C 128.113281 172.191406 123.550781 176.761719 125.457031 174.101562 Z M 125.457031 174.101562 "/>
<path style=" stroke:none;fill-rule:evenodd;fill:rgb(19.60907%,19.60907%,19.60907%);fill-opacity:1;" d="M 66.140625 178.058594 C 65.8125 177.730469 66.660156 178.578125 66.140625 178.058594 Z M 66.140625 178.058594 "/>
<path style=" stroke:none;fill-rule:evenodd;fill:rgb(19.60907%,19.60907%,19.60907%);fill-opacity:1;" d="M 361.15625 180.445312 C 360.828125 180.109375 361.667969 180.957031 361.15625 180.445312 Z M 361.15625 180.445312 "/>
<path style=" stroke:none;fill-rule:evenodd;fill:rgb(19.60907%,19.60907%,19.60907%);fill-opacity:1;" d="M 304.207031 181.222656 C 303.875 180.898438 304.71875 181.753906 304.207031 181.222656 Z M 304.207031 181.222656 "/>
<path style=" stroke:none;fill-rule:evenodd;fill:rgb(19.60907%,19.60907%,19.60907%);fill-opacity:1;" d="M 275.730469 182.027344 C 276.890625 179.394531 277.699219 185.113281 275.730469 182.027344 Z M 275.730469 182.027344 "/>
<path style=" stroke:none;fill-rule:evenodd;fill:rgb(19.60907%,19.60907%,19.60907%);fill-opacity:1;" d="M 29.757812 187.566406 C 29.1875 189.984375 30.566406 190.453125 30.550781 192.320312 C 26.34375 191.546875 24.378906 189.871094 21.054688 186.773438 C 21.746094 184.46875 22.242188 185.882812 24.21875 185.984375 C 22.226562 188.265625 26.933594 186.480469 29.757812 187.566406 Z M 29.757812 187.566406 "/>
<path style=" stroke:none;fill-rule:evenodd;fill:rgb(19.60907%,19.60907%,19.60907%);fill-opacity:1;" d="M 33.710938 192.316406 L 35.296875 192.316406 C 35 193.671875 35.917969 193.8125 36.878906 193.902344 C 36.457031 194.535156 36.054688 195.1875 36.089844 196.277344 C 35.015625 196.410156 34.503906 192.25 33.710938 194.695312 C 32.308594 194.113281 33.597656 193.25 33.710938 192.316406 Z M 33.710938 192.316406 "/>
<path style=" stroke:none;fill-rule:evenodd;fill:rgb(19.60907%,19.60907%,19.60907%);fill-opacity:1;" d="M 131.796875 127.367188 C 137.183594 134.363281 144.285156 139.679688 145.238281 151.128906 C 137.636719 145.773438 131.183594 134.003906 131.792969 127.367188 Z M 131.796875 127.367188 "/>
<path style=" stroke:none;fill-rule:evenodd;fill:rgb(19.60907%,19.60907%,19.60907%);fill-opacity:1;" d="M 312.113281 155.882812 C 306.714844 156.816406 307.371094 163.808594 301.828125 164.59375 C 302.996094 154.628906 313.824219 147.589844 318.441406 138.457031 C 320.679688 139.109375 320.492188 137.335938 322.394531 137.660156 C 320.035156 147.738281 313.109375 148.222656 312.105469 155.882812 Z M 312.113281 155.882812 "/>
<path style=" stroke:none;fill-rule:evenodd;fill:rgb(19.60907%,19.60907%,19.60907%);fill-opacity:1;" d="M 361.949219 176.488281 C 363.824219 173.871094 364.699219 170.261719 368.28125 169.355469 C 368.203125 172.3125 367.382812 171.613281 368.28125 174.101562 C 366.1875 175.179688 365.082031 177.253906 363.53125 178.855469 C 361.875 178.625 364.695312 176.722656 361.949219 176.492188 Z M 361.949219 176.488281 "/>
<g clip-path="url(#clip2)" clip-rule="nonzero">
<path style=" stroke:none;fill-rule:evenodd;fill:rgb(19.60907%,19.60907%,19.60907%);fill-opacity:1;" d="M 214.011719 117.019531 C 210.347656 121.742188 215.175781 125.660156 211.304688 130.414062 C 206.082031 123.203125 210.238281 110.449219 208.242188 101.125 C 210.394531 99.828125 209.148438 98.851562 210.84375 97.59375 C 215.195312 105.78125 210.074219 111.386719 214.007812 117.019531 Z M 214.011719 117.019531 "/>
</g>
<path style=" stroke:none;fill-rule:evenodd;fill:rgb(19.60907%,19.60907%,19.60907%);fill-opacity:1;" d="M 174.914062 135.847656 C 174 132.761719 171.683594 129.859375 173.152344 126.472656 C 175.441406 128.339844 174.394531 128.5625 176.90625 129.371094 C 176.472656 131.691406 177.4375 133.824219 177.753906 136.046875 C 176.550781 137.210938 176.773438 133.808594 174.910156 135.847656 Z M 174.914062 135.847656 "/>
<path style=" stroke:none;fill-rule:evenodd;fill:rgb(19.60907%,19.60907%,19.60907%);fill-opacity:1;" d="M 239.320312 134.644531 C 240.851562 131.824219 241.257812 128.136719 244.6875 126.769531 C 244.996094 129.722656 244.09375 129.132812 245.296875 131.492188 C 243.355469 132.820312 242.53125 135.003906 241.183594 136.800781 C 239.523438 136.78125 242.082031 134.535156 239.320312 134.644531 Z M 239.320312 134.644531 "/>
<path style=" stroke:none;fill-rule:evenodd;fill:rgb(19.60907%,19.60907%,19.60907%);fill-opacity:1;" d="M 248.480469 117.269531 C 250.015625 114.445312 250.425781 110.75 253.855469 109.390625 C 254.15625 112.339844 253.261719 111.753906 254.460938 114.109375 C 252.515625 115.4375 251.691406 117.625 250.351562 119.421875 C 248.679688 119.398438 251.242188 117.152344 248.480469 117.269531 Z M 248.480469 117.269531 "/>
<path style=" stroke:none;fill-rule:evenodd;fill:rgb(19.60907%,19.60907%,19.60907%);fill-opacity:1;" d="M 145.9375 269.34375 C 159.21875 266.875 169.375 259.039062 179.445312 250.046875 C 187.125 243.195312 185.542969 243.507812 198.449219 248.054688 C 198.449219 248.054688 220.289062 261.339844 224.078125 268.734375 C 217.316406 268.273438 200.320312 266.398438 195.179688 266.09375 C 188.605469 265.710938 186.9375 267.464844 179.914062 270.054688 C 168.34375 274.332031 168.394531 272.332031 158.046875 273.917969 "/>
<path style=" stroke:none;fill-rule:evenodd;fill:rgb(19.60907%,19.60907%,19.60907%);fill-opacity:1;" d="M 172.683594 269.738281 C 174.917969 269.792969 176.121094 268.980469 177.710938 268.5 C 177.882812 267.335938 176.90625 267.136719 176.996094 266.039062 "/>
<path style=" stroke:none;fill-rule:evenodd;fill:rgb(19.60907%,19.60907%,19.60907%);fill-opacity:1;" d="M 173.421875 266.4375 C 172.203125 267.441406 170.984375 268.734375 171.058594 270.453125 C 173.835938 271.199219 176.105469 267.375 172.84375 266.773438 "/>
</g>
</svg>
